<svg data-v-fde0c5aa="" xmlns="http://www.w3.org/2000/svg" viewBox="0 0 300 300" class="iconLeftSlogan"><!----><defs data-v-fde0c5aa=""><linearGradient data-v-fde0c5aa="" gradientTransform="rotate(25)" id="7ff0c47a-5361-47c9-b26c-01fd023c859e" x1="0%" y1="0%" x2="100%" y2="0%"><stop data-v-fde0c5aa="" offset="0%" stop-color="#122663" stop-opacity="1"></stop><stop data-v-fde0c5aa="" offset="100%" stop-color="#5DD7AD" stop-opacity="1"></stop></linearGradient></defs><rect data-v-fde0c5aa="" fill="url(#7ff0c47a-5361-47c9-b26c-01fd023c859e)" x="0" y="0" width="300px" height="300px" class="logo-background-square"></rect><defs data-v-fde0c5aa=""><!----></defs><g data-v-fde0c5aa="" id="084d298f-ff5b-49fd-b629-1042ef6f3b51" fill="#ffffff" transform="matrix(1.989066703292269,0,0,1.989066703292269,95.30526485081194,125.29085176709211)"><path d="M5.73 4.70L5.73 5.38L3.86 5.38L3.86 4.66L3.86 4.66Q3.86 4.55 3.79 4.47L3.79 4.47L3.79 4.47Q3.71 4.38 3.60 4.38L3.60 4.38L2.83 4.38L2.83 4.38Q2.72 4.38 2.64 4.47L2.64 4.47L2.64 4.47Q2.56 4.55 2.56 4.66L2.56 4.66L2.56 6.27L2.56 6.27Q2.56 6.38 2.64 6.47L2.64 6.47L2.64 6.47Q2.72 6.55 2.83 6.55L2.83 6.55L4.09 6.55L4.09 6.55Q5.82 6.58 5.82 8.40L5.82 8.40L5.82 10.35L5.82 10.35Q5.82 12.19 4.09 12.19L4.09 12.19L2.44 12.19L2.44 12.19Q0.70 12.19 0.70 10.35L0.70 10.35L0.70 9.41L2.56 9.41L2.56 10.42L2.56 10.42Q2.56 10.53 2.64 10.61L2.64 10.61L2.64 10.61Q2.72 10.70 2.83 10.70L2.83 10.70L3.70 10.70L3.70 10.70Q3.81 10.70 3.89 10.61L3.89 10.61L3.89 10.61Q3.96 10.53 3.96 10.42L3.96 10.42L3.96 8.64L3.96 8.64Q3.96 8.53 3.89 8.44L3.89 8.44L3.89 8.44Q3.81 8.36 3.70 8.36L3.70 8.36L2.44 8.36L2.44 8.36Q0.70 8.36 0.70 6.51L0.70 6.51L0.70 4.70L0.70 4.70Q0.70 2.86 2.44 2.86L2.44 2.86L3.99 2.86L3.99 2.86Q5.73 2.86 5.73 4.70L5.73 4.70ZM8.92 3.00L8.92 12.05L7.04 12.05L7.04 3.00L8.92 3.00ZM12.09 4.37L12.09 4.37L12.09 4.37Q11.79 4.66 11.37 4.66L11.37 4.66L11.37 4.66Q10.95 4.66 10.64 4.36L10.64 4.36L10.64 4.36Q10.33 4.06 10.33 3.63L10.33 3.63L10.33 3.63Q10.33 3.21 10.64 2.90L10.64 2.90L10.64 2.90Q10.95 2.60 11.37 2.60L11.37 2.60L11.37 2.60Q11.79 2.60 12.09 2.90L12.09 2.90L12.09 2.90Q12.39 3.21 12.39 3.64L12.39 3.64L12.39 3.64Q12.39 4.07 12.09 4.37ZM12.31 12.05L10.43 12.05L10.43 5.22L12.31 5.22L12.31 12.05ZM19.66 5.08L19.78 5.08L19.78 5.08Q21.52 5.08 21.52 6.93L21.52 6.93L21.52 12.05L19.64 12.05L19.64 6.71L19.64 6.71Q19.64 6.59 19.57 6.51L19.57 6.51L19.57 6.51Q19.49 6.43 19.38 6.43L19.38 6.43L18.77 6.43L18.77 6.43Q18.66 6.43 18.59 6.51L18.59 6.51L18.59 6.51Q18.51 6.59 18.51 6.71L18.51 6.71L18.51 12.05L16.63 12.05L16.63 6.71L16.63 6.71Q16.63 6.59 16.55 6.51L16.55 6.51L16.55 6.51Q16.48 6.43 16.37 6.43L16.37 6.43L15.76 6.43L15.76 6.43Q15.65 6.43 15.58 6.51L15.58 6.51L15.58 6.51Q15.50 6.59 15.50 6.71L15.50 6.71L15.50 12.05L13.62 12.05L13.62 5.22L15.33 5.22L15.33 5.57L15.33 5.57Q15.76 5.08 16.65 5.08L16.65 5.08L16.77 5.08L16.77 5.08Q17.81 5.08 18.21 5.73L18.21 5.73L18.21 5.73Q18.65 5.08 19.66 5.08L19.66 5.08ZM24.61 5.08L26.19 5.08L26.19 5.08Q27.93 5.08 27.93 6.93L27.93 6.93L27.93 9.14L24.75 9.14L24.75 10.57L24.75 10.57Q24.75 10.68 24.83 10.77L24.83 10.77L24.83 10.77Q24.91 10.85 25.02 10.85L25.02 10.85L25.79 10.85L25.79 10.85Q25.90 10.85 25.98 10.77L25.98 10.77L25.98 10.77Q26.05 10.68 26.05 10.57L26.05 10.57L26.05 9.81L27.93 9.81L27.93 10.35L27.93 10.35Q27.93 12.19 26.19 12.19L26.19 12.19L24.61 12.19L24.61 12.19Q22.88 12.19 22.88 10.35L22.88 10.35L22.88 6.93L22.88 6.93Q22.88 5.08 24.61 5.08L24.61 5.08ZM24.75 6.65L24.75 7.91L26.05 7.91L26.05 6.65L26.05 6.65Q26.05 6.54 25.98 6.45L25.98 6.45L25.98 6.45Q25.90 6.37 25.79 6.37L25.79 6.37L25.02 6.37L25.02 6.37Q24.91 6.37 24.83 6.45L24.83 6.45L24.83 6.45Q24.75 6.54 24.75 6.65L24.75 6.65ZM29.99 4.66L28.52 4.66L28.52 3.00L33.42 3.00L33.42 4.66L31.95 4.66L31.95 12.05L29.99 12.05L29.99 4.66ZM37.16 5.08L37.16 5.08L37.52 5.08L37.52 6.90L36.60 6.90L36.60 6.90Q36.12 6.90 36.12 7.39L36.12 7.39L36.12 12.05L34.24 12.05L34.24 5.22L35.95 5.22L35.95 5.88L35.95 5.88Q36.36 5.08 37.16 5.08ZM41.83 5.73L41.83 5.22L43.41 5.22L43.41 12.05L41.83 12.05L41.83 11.55L41.83 11.55Q41.40 12.19 40.39 12.19L40.39 12.19L40.10 12.19L40.10 12.19Q38.36 12.19 38.36 10.35L38.36 10.35L38.36 6.93L38.36 6.93Q38.36 5.08 40.10 5.08L40.10 5.08L40.39 5.08L40.39 5.08Q41.40 5.08 41.83 5.73L41.83 5.73ZM41.54 10.57L41.54 10.57L41.54 6.71L41.54 6.71Q41.54 6.59 41.46 6.51L41.46 6.51L41.46 6.51Q41.38 6.43 41.27 6.43L41.27 6.43L40.50 6.43L40.50 6.43Q40.39 6.43 40.31 6.51L40.31 6.51L40.31 6.51Q40.24 6.59 40.24 6.71L40.24 6.71L40.24 10.57L40.24 10.57Q40.24 10.68 40.31 10.77L40.31 10.77L40.31 10.77Q40.39 10.85 40.50 10.85L40.50 10.85L41.27 10.85L41.27 10.85Q41.38 10.85 41.46 10.77L41.46 10.77L41.46 10.77Q41.54 10.68 41.54 10.57ZM46.42 5.08L46.72 5.08L46.72 5.08Q47.43 5.08 47.87 5.42L47.87 5.42L47.87 3.00L49.74 3.00L49.74 12.05L48.16 12.05L48.16 11.55L48.16 11.55Q47.73 12.19 46.72 12.19L46.72 12.19L46.42 12.19L46.42 12.19Q44.69 12.19 44.69 10.35L44.69 10.35L44.69 6.93L44.69 6.93Q44.69 5.08 46.42 5.08L46.42 5.08ZM47.87 10.57L47.87 10.57L47.87 6.71L47.87 6.71Q47.87 6.59 47.79 6.51L47.79 6.51L47.79 6.51Q47.71 6.43 47.60 6.43L47.60 6.43L46.83 6.43L46.83 6.43Q46.72 6.43 46.64 6.51L46.64 6.51L46.64 6.51Q46.56 6.59 46.56 6.71L46.56 6.71L46.56 10.57L46.56 10.57Q46.56 10.68 46.64 10.77L46.64 10.77L46.64 10.77Q46.72 10.85 46.83 10.85L46.83 10.85L47.60 10.85L47.60 10.85Q47.71 10.85 47.79 10.77L47.79 10.77L47.79 10.77Q47.87 10.68 47.87 10.57ZM52.93 4.37L52.93 4.37L52.93 4.37Q52.63 4.66 52.21 4.66L52.21 4.66L52.21 4.66Q51.79 4.66 51.48 4.36L51.48 4.36L51.48 4.36Q51.17 4.06 51.17 3.63L51.17 3.63L51.17 3.63Q51.17 3.21 51.48 2.90L51.48 2.90L51.48 2.90Q51.79 2.60 52.21 2.60L52.21 2.60L52.21 2.60Q52.63 2.60 52.93 2.90L52.93 2.90L52.93 2.90Q53.23 3.21 53.23 3.64L53.23 3.64L53.23 3.64Q53.23 4.07 52.93 4.37ZM53.14 12.05L51.27 12.05L51.27 5.22L53.14 5.22L53.14 12.05ZM56.95 10.98L56.95 10.98L57.51 10.98L57.51 12.19L56.20 12.19L56.20 12.19Q54.46 12.19 54.46 10.35L54.46 10.35L54.46 3.74L56.34 3.74L56.34 5.22L57.51 5.22L57.51 6.58L56.34 6.58L56.34 10.30L56.34 10.30Q56.34 10.70 56.49 10.84L56.49 10.84L56.49 10.84Q56.64 10.98 56.95 10.98ZM60.40 4.37L60.40 4.37L60.40 4.37Q60.10 4.66 59.68 4.66L59.68 4.66L59.68 4.66Q59.26 4.66 58.95 4.36L58.95 4.36L58.95 4.36Q58.65 4.06 58.65 3.63L58.65 3.63L58.65 3.63Q58.65 3.21 58.95 2.90L58.95 2.90L58.95 2.90Q59.26 2.60 59.68 2.60L59.68 2.60L59.68 2.60Q60.10 2.60 60.40 2.90L60.40 2.90L60.40 2.90Q60.70 3.21 60.70 3.64L60.70 3.64L60.70 3.64Q60.70 4.07 60.40 4.37ZM60.62 12.05L58.74 12.05L58.74 5.22L60.62 5.22L60.62 12.05ZM66.99 6.93L66.99 6.93L66.99 10.35L66.99 10.35Q66.99 12.19 65.25 12.19L65.25 12.19L63.67 12.19L63.67 12.19Q61.94 12.19 61.94 10.35L61.94 10.35L61.94 6.93L61.94 6.93Q61.94 5.08 63.67 5.08L63.67 5.08L65.25 5.08L65.25 5.08Q66.99 5.08 66.99 6.93ZM65.11 10.74L65.11 10.74L65.11 6.52L65.11 6.52Q65.11 6.41 65.04 6.33L65.04 6.33L65.04 6.33Q64.96 6.24 64.85 6.24L64.85 6.24L64.08 6.24L64.08 6.24Q63.97 6.24 63.89 6.33L63.89 6.33L63.89 6.33Q63.81 6.41 63.81 6.52L63.81 6.52L63.81 10.74L63.81 10.74Q63.81 10.85 63.89 10.93L63.89 10.93L63.89 10.93Q63.97 11.02 64.08 11.02L64.08 11.02L64.85 11.02L64.85 11.02Q64.96 11.02 65.04 10.93L65.04 10.93L65.04 10.93Q65.11 10.85 65.11 10.74ZM70.14 6.71L70.14 12.05L68.26 12.05L68.26 5.22L69.97 5.22L69.97 5.57L69.97 5.57Q70.41 5.08 71.29 5.08L71.29 5.08L71.58 5.08L71.58 5.08Q73.32 5.08 73.32 6.93L73.32 6.93L73.32 12.05L71.44 12.05L71.44 6.71L71.44 6.71Q71.44 6.59 71.37 6.51L71.37 6.51L71.37 6.51Q71.29 6.43 71.18 6.43L71.18 6.43L70.41 6.43L70.41 6.43Q70.29 6.43 70.22 6.51L70.22 6.51L70.22 6.51Q70.14 6.59 70.14 6.71L70.14 6.71ZM78.06 5.73L78.06 5.22L79.65 5.22L79.65 12.05L78.06 12.05L78.06 11.55L78.06 11.55Q77.63 12.19 76.62 12.19L76.62 12.19L76.33 12.19L76.33 12.19Q74.59 12.19 74.59 10.35L74.59 10.35L74.59 6.93L74.59 6.93Q74.59 5.08 76.33 5.08L76.33 5.08L76.62 5.08L76.62 5.08Q77.63 5.08 78.06 5.73L78.06 5.73ZM77.77 10.57L77.77 10.57L77.77 6.71L77.77 6.71Q77.77 6.59 77.69 6.51L77.69 6.51L77.69 6.51Q77.62 6.43 77.50 6.43L77.50 6.43L76.73 6.43L76.73 6.43Q76.62 6.43 76.55 6.51L76.55 6.51L76.55 6.51Q76.47 6.59 76.47 6.71L76.47 6.71L76.47 10.57L76.47 10.57Q76.47 10.68 76.55 10.77L76.55 10.77L76.55 10.77Q76.62 10.85 76.73 10.85L76.73 10.85L77.50 10.85L77.50 10.85Q77.62 10.85 77.69 10.77L77.69 10.77L77.69 10.77Q77.77 10.68 77.77 10.57ZM82.80 3.00L82.80 12.05L80.92 12.05L80.92 3.00L82.80 3.00Z"></path></g><defs data-v-fde0c5aa=""><!----></defs><g data-v-fde0c5aa="" id="515e904d-5872-485d-acc7-bc6419fff566" stroke="none" fill="#ffffff" transform="matrix(0.6651081959631857,0,0,0.6651081959631857,35.24447728687847,123.39567152717596)"><path d="M69.85 19.3L43 3.8a6 6 0 0 0-6 0L10.15 19.3a6 6 0 0 0-3 5.2V34a2 2 0 0 0 4 0v-8.34l11.32 6.53a5.09 5.09 0 0 0 0 .55v12.78l-12.32-7.08a2 2 0 0 0-3 1.73V55.5a6 6 0 0 0 3 5.2L37 76.2a6 6 0 0 0 6 0l26.85-15.5a6 6 0 0 0 3-5.2v-31a6 6 0 0 0-3-5.2zM22.43 63.17l-10.28-5.94a2 2 0 0 1-1-1.73V43.63l11.28 6.51zM39 7.27a2 2 0 0 1 2 0l10.28 5.93L40 19.71 28.72 13.2zM24.47 28.72l-11.32-6.53 11.57-6.68L36 22l-11.07 6.41zM38 25.49v13.38l-11.57 6.66V32.74a1 1 0 0 1 .5-.86zm0 46.66l-11.57-6.67v-13l11.07 6.36a3.33 3.33 0 0 0 .5.25zm1.5-16.77L28.44 49 40 42.33 51.56 49 40.5 55.38a1 1 0 0 1-1 0zm14.07 10.1L42 72.15V59.09a3.33 3.33 0 0 0 .5-.25l11.07-6.39zm0-20L42 38.87V25.49l11.07 6.39a1 1 0 0 1 .5.86zm1.5-17.12L44 22l11.28-6.51 11.57 6.68-11.32 6.55zM68.85 55.5a2 2 0 0 1-1 1.73l-10.28 5.94v-13l8.25-4.76a2 2 0 1 0-2-3.47l-6.25 3.61V32.74a5.09 5.09 0 0 0 0-.55l11.32-6.53z"></path></g><defs data-v-fde0c5aa=""><!----></defs><g data-v-fde0c5aa="" id="467b1a82-6dc9-4f66-a4ee-7932a4850f5c" fill="#ffffff" transform="matrix(1.0056185054152091,0,0,1.0056185054152091,95.85289194129008,153.82566205590763)"><path d="M0.84 6.97L0.84 5.88L7.73 5.88L7.73 6.97L4.87 6.97L4.87 15.68L3.70 15.68L3.70 6.97L0.84 6.97ZM22.92 12.15L22.92 15.68L21.74 15.68L21.74 12.40L21.74 12.40Q21.74 12.04 21.57 11.84L21.57 11.84L21.57 11.84Q21.41 11.65 20.99 11.65L20.99 11.65L17.93 11.65L17.93 15.68L16.76 15.68L16.76 5.88L20.26 5.88L20.26 5.88Q21.01 5.88 21.57 6.10L21.57 6.10L21.57 6.10Q22.13 6.31 22.50 6.68L22.50 6.68L22.50 6.68Q22.88 7.04 23.06 7.53L23.06 7.53L23.06 7.53Q23.25 8.01 23.25 8.54L23.25 8.54L23.25 8.96L23.25 8.96Q23.25 9.51 22.95 10.05L22.95 10.05L22.95 10.05Q22.65 10.60 22.02 10.89L22.02 10.89L22.02 11.06L22.02 11.06Q22.44 11.13 22.68 11.40L22.68 11.40L22.68 11.40Q22.92 11.66 22.92 12.15L22.92 12.15ZM17.93 6.97L17.93 10.56L20.12 10.56L20.12 10.56Q21.11 10.56 21.59 10.13L21.59 10.13L21.59 10.13Q22.08 9.70 22.08 8.88L22.08 8.88L22.08 8.62L22.08 8.62Q22.08 7.88 21.59 7.43L21.59 7.43L21.59 7.43Q21.11 6.97 20.12 6.97L20.12 6.97L17.93 6.97ZM38.23 15.68L37.52 13.24L33.32 13.24L32.61 15.68L31.35 15.68L34.31 5.88L36.53 5.88L39.49 15.68L38.23 15.68ZM35.50 6.38L35.34 6.38L33.64 12.15L37.20 12.15L35.50 6.38ZM50.08 5.88L52.91 15.18L53.07 15.18L53.07 5.88L54.25 5.88L54.25 15.68L51.90 15.68L49.07 6.38L48.90 6.38L48.90 15.68L47.73 15.68L47.73 5.88L50.08 5.88ZM68.87 9.21L68.87 8.71L68.87 8.71Q68.87 8.23 68.68 7.87L68.68 7.87L68.68 7.87Q68.49 7.50 68.17 7.27L68.17 7.27L68.17 7.27Q67.84 7.03 67.42 6.90L67.42 6.90L67.42 6.90Q67.00 6.78 66.54 6.78L66.54 6.78L66.54 6.78Q66.14 6.78 65.77 6.88L65.77 6.88L65.77 6.88Q65.41 6.99 65.12 7.18L65.12 7.18L65.12 7.18Q64.83 7.38 64.67 7.66L64.67 7.66L64.67 7.66Q64.50 7.95 64.50 8.33L64.50 8.33L64.50 8.41L64.50 8.41Q64.50 8.82 64.67 9.11L64.67 9.11L64.67 9.11Q64.83 9.39 65.16 9.60L65.16 9.60L65.16 9.60Q65.49 9.80 65.98 9.93L65.98 9.93L65.98 9.93Q66.47 10.07 67.13 10.16L67.13 10.16L67.13 10.16Q68.67 10.40 69.40 11.07L69.40 11.07L69.40 11.07Q70.13 11.73 70.13 12.85L70.13 12.85L70.13 13.02L70.13 13.02Q70.13 13.65 69.91 14.17L69.91 14.17L69.91 14.17Q69.69 14.70 69.27 15.08L69.27 15.08L69.27 15.08Q68.84 15.46 68.21 15.67L68.21 15.67L68.21 15.67Q67.58 15.88 66.75 15.88L66.75 15.88L66.75 15.88Q65.81 15.88 65.09 15.60L65.09 15.60L65.09 15.60Q64.37 15.33 63.89 14.85L63.89 14.85L63.89 14.85Q63.41 14.36 63.15 13.71L63.15 13.71L63.15 13.71Q62.90 13.06 62.90 12.29L62.90 12.29L62.90 11.87L64.08 11.87L64.08 12.21L64.08 12.21Q64.08 13.50 64.78 14.14L64.78 14.14L64.78 14.14Q65.49 14.78 66.75 14.78L66.75 14.78L66.75 14.78Q67.84 14.78 68.40 14.30L68.40 14.30L68.40 14.30Q68.95 13.82 68.95 13.02L68.95 13.02L68.95 12.94L68.95 12.94Q68.95 12.17 68.38 11.76L68.38 11.76L68.38 11.76Q67.82 11.35 66.54 11.17L66.54 11.17L66.54 11.17Q65.80 11.07 65.20 10.87L65.20 10.87L65.20 10.87Q64.61 10.67 64.19 10.34L64.19 10.34L64.19 10.34Q63.77 10.01 63.55 9.55L63.55 9.55L63.55 9.55Q63.32 9.09 63.32 8.46L63.32 8.46L63.32 8.29L63.32 8.29Q63.32 7.71 63.56 7.24L63.56 7.24L63.56 7.24Q63.80 6.76 64.22 6.41L64.22 6.41L64.22 6.41Q64.65 6.06 65.25 5.87L65.25 5.87L65.25 5.87Q65.84 5.68 66.56 5.68L66.56 5.68L66.56 5.68Q67.38 5.68 68.03 5.92L68.03 5.92L68.03 5.92Q68.68 6.16 69.13 6.56L69.13 6.56L69.13 6.56Q69.58 6.96 69.81 7.50L69.81 7.50L69.81 7.50Q70.04 8.04 70.04 8.62L70.04 8.62L70.04 9.21L68.87 9.21ZM79.06 15.68L79.06 5.88L80.23 5.88L80.23 14.59L85.36 14.59L85.36 15.68L79.06 15.68ZM100.51 15.68L99.79 13.24L95.59 13.24L94.88 15.68L93.62 15.68L96.59 5.88L98.80 5.88L101.77 15.68L100.51 15.68ZM97.78 6.38L97.61 6.38L95.91 12.15L99.47 12.15L97.78 6.38ZM109.82 6.97L109.82 5.88L116.70 5.88L116.70 6.97L113.85 6.97L113.85 15.68L112.67 15.68L112.67 6.97L109.82 6.97ZM125.72 6.97L125.72 5.88L131.94 5.88L131.94 6.97L129.42 6.97L129.42 14.59L131.94 14.59L131.94 15.68L125.72 15.68L125.72 14.59L128.24 14.59L128.24 6.97L125.72 6.97ZM140.95 11.87L140.95 9.69L140.95 9.69Q140.95 7.78 141.86 6.73L141.86 6.73L141.86 6.73Q142.77 5.68 144.40 5.68L144.40 5.68L144.40 5.68Q146.02 5.68 146.93 6.73L146.93 6.73L146.93 6.73Q147.84 7.78 147.84 9.69L147.84 9.69L147.84 11.87L147.84 11.87Q147.84 13.83 146.93 14.85L146.93 14.85L146.93 14.85Q146.02 15.88 144.40 15.88L144.40 15.88L144.40 15.88Q142.77 15.88 141.86 14.85L141.86 14.85L141.86 14.85Q140.95 13.83 140.95 11.87L140.95 11.87ZM144.40 14.78L144.40 14.78L144.40 14.78Q145.53 14.78 146.10 14.01L146.10 14.01L146.10 14.01Q146.66 13.23 146.66 11.79L146.66 11.79L146.66 9.77L146.66 9.77Q146.66 8.43 146.10 7.60L146.10 7.60L146.10 7.60Q145.53 6.78 144.40 6.78L144.40 6.78L144.40 6.78Q143.26 6.78 142.69 7.60L142.69 7.60L142.69 7.60Q142.13 8.43 142.13 9.77L142.13 9.77L142.13 11.79L142.13 11.79Q142.13 13.23 142.69 14.01L142.69 14.01L142.69 14.01Q143.26 14.78 144.40 14.78ZM159.05 5.88L161.88 15.18L162.05 15.18L162.05 5.88L163.23 5.88L163.23 15.68L160.87 15.68L158.05 6.38L157.88 6.38L157.88 15.68L156.70 15.68L156.70 5.88L159.05 5.88Z"></path></g></svg>