<svg data-v-423bf9ae="" xmlns="http://www.w3.org/2000/svg" viewBox="0 0 513.6600925790018 60" class="font"><!----><!----><!----><g data-v-423bf9ae="" id="329bbd3e-e562-4572-9068-8003a2a853ae" fill="black" transform="matrix(6.256517105873957,0,0,6.256517105873957,-4.379557541770396,-16.26694435544148)"><path d="M5.73 4.70L5.73 5.38L3.86 5.38L3.86 4.66L3.86 4.66Q3.86 4.55 3.79 4.47L3.79 4.47L3.79 4.47Q3.71 4.38 3.60 4.38L3.60 4.38L2.83 4.38L2.83 4.38Q2.72 4.38 2.64 4.47L2.64 4.47L2.64 4.47Q2.56 4.55 2.56 4.66L2.56 4.66L2.56 6.27L2.56 6.27Q2.56 6.38 2.64 6.47L2.64 6.47L2.64 6.47Q2.72 6.55 2.83 6.55L2.83 6.55L4.09 6.55L4.09 6.55Q5.82 6.58 5.82 8.40L5.82 8.40L5.82 10.35L5.82 10.35Q5.82 12.19 4.09 12.19L4.09 12.19L2.44 12.19L2.44 12.19Q0.70 12.19 0.70 10.35L0.70 10.35L0.70 9.41L2.56 9.41L2.56 10.42L2.56 10.42Q2.56 10.53 2.64 10.61L2.64 10.61L2.64 10.61Q2.72 10.70 2.83 10.70L2.83 10.70L3.70 10.70L3.70 10.70Q3.81 10.70 3.89 10.61L3.89 10.61L3.89 10.61Q3.96 10.53 3.96 10.42L3.96 10.42L3.96 8.64L3.96 8.64Q3.96 8.53 3.89 8.44L3.89 8.44L3.89 8.44Q3.81 8.36 3.70 8.36L3.70 8.36L2.44 8.36L2.44 8.36Q0.70 8.36 0.70 6.51L0.70 6.51L0.70 4.70L0.70 4.70Q0.70 2.86 2.44 2.86L2.44 2.86L3.99 2.86L3.99 2.86Q5.73 2.86 5.73 4.70L5.73 4.70ZM8.92 3.00L8.92 12.05L7.04 12.05L7.04 3.00L8.92 3.00ZM12.09 4.37L12.09 4.37L12.09 4.37Q11.79 4.66 11.37 4.66L11.37 4.66L11.37 4.66Q10.95 4.66 10.64 4.36L10.64 4.36L10.64 4.36Q10.33 4.06 10.33 3.63L10.33 3.63L10.33 3.63Q10.33 3.21 10.64 2.90L10.64 2.90L10.64 2.90Q10.95 2.60 11.37 2.60L11.37 2.60L11.37 2.60Q11.79 2.60 12.09 2.90L12.09 2.90L12.09 2.90Q12.39 3.21 12.39 3.64L12.39 3.64L12.39 3.64Q12.39 4.07 12.09 4.37ZM12.31 12.05L10.43 12.05L10.43 5.22L12.31 5.22L12.31 12.05ZM19.66 5.08L19.78 5.08L19.78 5.08Q21.52 5.08 21.52 6.93L21.52 6.93L21.52 12.05L19.64 12.05L19.64 6.71L19.64 6.71Q19.64 6.59 19.57 6.51L19.57 6.51L19.57 6.51Q19.49 6.43 19.38 6.43L19.38 6.43L18.77 6.43L18.77 6.43Q18.66 6.43 18.59 6.51L18.59 6.51L18.59 6.51Q18.51 6.59 18.51 6.71L18.51 6.71L18.51 12.05L16.63 12.05L16.63 6.71L16.63 6.71Q16.63 6.59 16.55 6.51L16.55 6.51L16.55 6.51Q16.48 6.43 16.37 6.43L16.37 6.43L15.76 6.43L15.76 6.43Q15.65 6.43 15.58 6.51L15.58 6.51L15.58 6.51Q15.50 6.59 15.50 6.71L15.50 6.71L15.50 12.05L13.62 12.05L13.62 5.22L15.33 5.22L15.33 5.57L15.33 5.57Q15.76 5.08 16.65 5.08L16.65 5.08L16.77 5.08L16.77 5.08Q17.81 5.08 18.21 5.73L18.21 5.73L18.21 5.73Q18.65 5.08 19.66 5.08L19.66 5.08ZM24.61 5.08L26.19 5.08L26.19 5.08Q27.93 5.08 27.93 6.93L27.93 6.93L27.93 9.14L24.75 9.14L24.75 10.57L24.75 10.57Q24.75 10.68 24.83 10.77L24.83 10.77L24.83 10.77Q24.91 10.85 25.02 10.85L25.02 10.85L25.79 10.85L25.79 10.85Q25.90 10.85 25.98 10.77L25.98 10.77L25.98 10.77Q26.05 10.68 26.05 10.57L26.05 10.57L26.05 9.81L27.93 9.81L27.93 10.35L27.93 10.35Q27.93 12.19 26.19 12.19L26.19 12.19L24.61 12.19L24.61 12.19Q22.88 12.19 22.88 10.35L22.88 10.35L22.88 6.93L22.88 6.93Q22.88 5.08 24.61 5.08L24.61 5.08ZM24.75 6.65L24.75 7.91L26.05 7.91L26.05 6.65L26.05 6.65Q26.05 6.54 25.98 6.45L25.98 6.45L25.98 6.45Q25.90 6.37 25.79 6.37L25.79 6.37L25.02 6.37L25.02 6.37Q24.91 6.37 24.83 6.45L24.83 6.45L24.83 6.45Q24.75 6.54 24.75 6.65L24.75 6.65ZM29.99 4.66L28.52 4.66L28.52 3.00L33.42 3.00L33.42 4.66L31.95 4.66L31.95 12.05L29.99 12.05L29.99 4.66ZM37.16 5.08L37.16 5.08L37.52 5.08L37.52 6.90L36.60 6.90L36.60 6.90Q36.12 6.90 36.12 7.39L36.12 7.39L36.12 12.05L34.24 12.05L34.24 5.22L35.95 5.22L35.95 5.88L35.95 5.88Q36.36 5.08 37.16 5.08ZM41.83 5.73L41.83 5.22L43.41 5.22L43.41 12.05L41.83 12.05L41.83 11.55L41.83 11.55Q41.40 12.19 40.39 12.19L40.39 12.19L40.10 12.19L40.10 12.19Q38.36 12.19 38.36 10.35L38.36 10.35L38.36 6.93L38.36 6.93Q38.36 5.08 40.10 5.08L40.10 5.08L40.39 5.08L40.39 5.08Q41.40 5.08 41.83 5.73L41.83 5.73ZM41.54 10.57L41.54 10.57L41.54 6.71L41.54 6.71Q41.54 6.59 41.46 6.51L41.46 6.51L41.46 6.51Q41.38 6.43 41.27 6.43L41.27 6.43L40.50 6.43L40.50 6.43Q40.39 6.43 40.31 6.51L40.31 6.51L40.31 6.51Q40.24 6.59 40.24 6.71L40.24 6.71L40.24 10.57L40.24 10.57Q40.24 10.68 40.31 10.77L40.31 10.77L40.31 10.77Q40.39 10.85 40.50 10.85L40.50 10.85L41.27 10.85L41.27 10.85Q41.38 10.85 41.46 10.77L41.46 10.77L41.46 10.77Q41.54 10.68 41.54 10.57ZM46.42 5.08L46.72 5.08L46.72 5.08Q47.43 5.08 47.87 5.42L47.87 5.42L47.87 3.00L49.74 3.00L49.74 12.05L48.16 12.05L48.16 11.55L48.16 11.55Q47.73 12.19 46.72 12.19L46.72 12.19L46.42 12.19L46.42 12.19Q44.69 12.19 44.69 10.35L44.69 10.35L44.69 6.93L44.69 6.93Q44.69 5.08 46.42 5.08L46.42 5.08ZM47.87 10.57L47.87 10.57L47.87 6.71L47.87 6.71Q47.87 6.59 47.79 6.51L47.79 6.51L47.79 6.51Q47.71 6.43 47.60 6.43L47.60 6.43L46.83 6.43L46.83 6.43Q46.72 6.43 46.64 6.51L46.64 6.51L46.64 6.51Q46.56 6.59 46.56 6.71L46.56 6.71L46.56 10.57L46.56 10.57Q46.56 10.68 46.64 10.77L46.64 10.77L46.64 10.77Q46.72 10.85 46.83 10.85L46.83 10.85L47.60 10.85L47.60 10.85Q47.71 10.85 47.79 10.77L47.79 10.77L47.79 10.77Q47.87 10.68 47.87 10.57ZM52.93 4.37L52.93 4.37L52.93 4.37Q52.63 4.66 52.21 4.66L52.21 4.66L52.21 4.66Q51.79 4.66 51.48 4.36L51.48 4.36L51.48 4.36Q51.17 4.06 51.17 3.63L51.17 3.63L51.17 3.63Q51.17 3.21 51.48 2.90L51.48 2.90L51.48 2.90Q51.79 2.60 52.21 2.60L52.21 2.60L52.21 2.60Q52.63 2.60 52.93 2.90L52.93 2.90L52.93 2.90Q53.23 3.21 53.23 3.64L53.23 3.64L53.23 3.64Q53.23 4.07 52.93 4.37ZM53.14 12.05L51.27 12.05L51.27 5.22L53.14 5.22L53.14 12.05ZM56.95 10.98L56.95 10.98L57.51 10.98L57.51 12.19L56.20 12.19L56.20 12.19Q54.46 12.19 54.46 10.35L54.46 10.35L54.46 3.74L56.34 3.74L56.34 5.22L57.51 5.22L57.51 6.58L56.34 6.58L56.34 10.30L56.34 10.30Q56.34 10.70 56.49 10.84L56.49 10.84L56.49 10.84Q56.64 10.98 56.95 10.98ZM60.40 4.37L60.40 4.37L60.40 4.37Q60.10 4.66 59.68 4.66L59.68 4.66L59.68 4.66Q59.26 4.66 58.95 4.36L58.95 4.36L58.95 4.36Q58.65 4.06 58.65 3.63L58.65 3.63L58.65 3.63Q58.65 3.21 58.95 2.90L58.95 2.90L58.95 2.90Q59.26 2.60 59.68 2.60L59.68 2.60L59.68 2.60Q60.10 2.60 60.40 2.90L60.40 2.90L60.40 2.90Q60.70 3.21 60.70 3.64L60.70 3.64L60.70 3.64Q60.70 4.07 60.40 4.37ZM60.62 12.05L58.74 12.05L58.74 5.22L60.62 5.22L60.62 12.05ZM66.99 6.93L66.99 6.93L66.99 10.35L66.99 10.35Q66.99 12.19 65.25 12.19L65.25 12.19L63.67 12.19L63.67 12.19Q61.94 12.19 61.94 10.35L61.94 10.35L61.94 6.93L61.94 6.93Q61.94 5.08 63.67 5.08L63.67 5.08L65.25 5.08L65.25 5.08Q66.99 5.08 66.99 6.93ZM65.11 10.74L65.11 10.74L65.11 6.52L65.11 6.52Q65.11 6.41 65.04 6.33L65.04 6.33L65.04 6.33Q64.96 6.24 64.85 6.24L64.85 6.24L64.08 6.24L64.08 6.24Q63.97 6.24 63.89 6.33L63.89 6.33L63.89 6.33Q63.81 6.41 63.81 6.52L63.81 6.52L63.81 10.74L63.81 10.74Q63.81 10.85 63.89 10.93L63.89 10.93L63.89 10.93Q63.97 11.02 64.08 11.02L64.08 11.02L64.85 11.02L64.85 11.02Q64.96 11.02 65.04 10.93L65.04 10.93L65.04 10.93Q65.11 10.85 65.11 10.74ZM70.14 6.71L70.14 12.05L68.26 12.05L68.26 5.22L69.97 5.22L69.97 5.57L69.97 5.57Q70.41 5.08 71.29 5.08L71.29 5.08L71.58 5.08L71.58 5.08Q73.32 5.08 73.32 6.93L73.32 6.93L73.32 12.05L71.44 12.05L71.44 6.71L71.44 6.71Q71.44 6.59 71.37 6.51L71.37 6.51L71.37 6.51Q71.29 6.43 71.18 6.43L71.18 6.43L70.41 6.43L70.41 6.43Q70.29 6.43 70.22 6.51L70.22 6.51L70.22 6.51Q70.14 6.59 70.14 6.71L70.14 6.71ZM78.06 5.73L78.06 5.22L79.65 5.22L79.65 12.05L78.06 12.05L78.06 11.55L78.06 11.55Q77.63 12.19 76.62 12.19L76.62 12.19L76.33 12.19L76.33 12.19Q74.59 12.19 74.59 10.35L74.59 10.35L74.59 6.93L74.59 6.93Q74.59 5.08 76.33 5.08L76.33 5.08L76.62 5.08L76.62 5.08Q77.63 5.08 78.06 5.73L78.06 5.73ZM77.77 10.57L77.77 10.57L77.77 6.71L77.77 6.71Q77.77 6.59 77.69 6.51L77.69 6.51L77.69 6.51Q77.62 6.43 77.50 6.43L77.50 6.43L76.73 6.43L76.73 6.43Q76.62 6.43 76.55 6.51L76.55 6.51L76.55 6.51Q76.47 6.59 76.47 6.71L76.47 6.71L76.47 10.57L76.47 10.57Q76.47 10.68 76.55 10.77L76.55 10.77L76.55 10.77Q76.62 10.85 76.73 10.85L76.73 10.85L77.50 10.85L77.50 10.85Q77.62 10.85 77.69 10.77L77.69 10.77L77.69 10.77Q77.77 10.68 77.77 10.57ZM82.80 3.00L82.80 12.05L80.92 12.05L80.92 3.00L82.80 3.00Z"></path></g><!----><!----></svg>